<svg width="45" height="44" viewBox="0 0 45 44" fill="none" xmlns="http://www.w3.org/2000/svg">
<path d="M0.798828 22.0005C0.798828 23.2416 1.56229 24.2668 2.54807 24.4172L2.79883 24.4362L42.7988 24.4362C43.6095 24.4362 44.3375 23.8419 44.6468 22.9293C44.7482 22.6305 44.7988 22.3155 44.7988 22.0005C44.7988 21.4728 44.6581 20.9495 44.3874 20.521L44.2095 20.276L28.0762 0.709202C27.2948 -0.239098 26.0282 -0.235855 25.2495 0.715691C24.5357 1.59092 24.4762 2.96008 25.0752 3.91263L25.2548 4.1614L37.9562 19.5648L2.79883 19.5648C1.69483 19.5648 0.798828 20.656 0.798828 22.0005ZM25.2546 39.8386C24.4706 40.7869 24.4706 42.3295 25.2492 43.2843C25.963 44.1566 27.0868 44.232 27.8731 43.5081L28.0786 43.2908L36.9746 32.499C37.3692 32.0216 37.5639 31.3981 37.5639 30.7713C37.5639 30.151 37.3692 29.5307 36.9799 29.0533C36.2661 28.1781 35.1445 28.1024 34.3587 28.8288L34.1532 29.0468L25.2546 39.8386Z" fill="url(#paint0_linear_83_1372)"/>
<defs>
<linearGradient id="paint0_linear_83_1372" x1="34.3778" y1="44" x2="32.127" y2="-1.54811" gradientUnits="userSpaceOnUse">
<stop stop-color="#28668C"/>
<stop offset="1" stop-color="#1CAAA6"/>
</linearGradient>
</defs>
</svg>
